{"title":"Simply.Irresistible.1999.1080p.BluRay.x264-GECKOS.mkv.MP4","uid":11202983,"size":1460882723,"categoryP":"video","categoryS":"hd___movies","magnet":"?xt=urn:btih:f816b99fa2408e0a77fc8632dde307f1d9d90f8e&amp;dn=Simply.Irresistible.1999.1080p.BluRay.x264-GECKOS.mkv.MP4&amp;tr=udp%3A%2F%2Ftracker.openbittorrent.com%3A80&amp;tr=udp%3A%2F%2Fopen.demonii.com%3A1337&amp;tr=udp%3A%2F%2Ftracker.coppersurfer.tk%3A6969&amp;tr=udp%3A%2F%2Fexodus.desync.com%3A6969","seeders":0,"leechers":1,"uploader":"luckydag","files":1,"time":1413199374,"description":"General\nComplete name \nSimply.Irresistible.1999.1080p.BluRay.x264-GECKOS [PublicHD]Simply.Irresistible.1999.1080p.BluRay.x264 by luckydagSimply.Irresistible.1999.1080p.BluRay.x264-GECKOS.mkv.MP4\nFormat                         : MPEG-4\nFormat profile                 : Base Media\nCodec ID                       : isom\nFile size                      : 1.36 GiB\nDuration                       : 1h 35mn\nOverall bit rate mode          : Variable\nOverall bit rate               : 2 033 Kbps\nMovie name                     : Simply.Irresistible.1999.1080p.BluRay.x264-GECKOS\nPerformer                      : created.with.SUPER(C).v2014.bld.62+Recorder\nContentType                    : Short Film\nEncoded date                   : UTC 2014-10-13 00:00:00\nTagged date                    : UTC 2014-10-13 00:00:00\nWriting application            : eRightSoft(C)\nComment                        : eRightSoft\n\nVideo\nID                             : 1\nFormat                         : AVC\nFormat/Info                    : Advanced Video Codec\nFormat profile                 : &lt;a class=&quot;__cf_email__&quot; href=&quot;/cdn-cgi/l/email-protection&quot; data-cfemail=&quot;ade0ccc4c3ede19f839d&quot;&gt;[email&amp;#160;protected]&lt;/a&gt;&lt;script cf-hash='f9e31' type=&quot;text/javascript&quot;&gt;\n/* &lt;![CDATA[ */!function(){try{var t=&quot;currentScript&quot;in document?document.currentScript:function(){for(var t=document.getElementsByTagName(&quot;script&quot;),e=t.length;e--;)if(t[e].getAttribute(&quot;cf-hash&quot;))return t[e]}();if(t&amp;&amp;t.previousSibling){var e,r,n,i,c=t.previousSibling,a=c.getAttribute(&quot;data-cfemail&quot;);if(a){for(e=&quot;&quot;,r=parseInt(a.substr(0,2),16),n=2;a.length-n;n+=2)i=parseInt(a.substr(n,2),16)^r,e+=String.fromCharCode(i);e=document.createTextNode(e),c.parentNode.replaceChild(e,c)}}}catch(u){}}();/* ]]&gt; */&lt;/script&gt;\nFormat settings, CABAC         : Yes\nFormat settings, ReFrames      : 4 frames\nCodec ID                       : avc1\nCodec ID/Info                  : Advanced Video Coding\nDuration                       : 1h 35mn\nBit rate                       : 1 771 Kbps\nWidth                          : 1 920 pixels\nHeight                         : 816 pixels\nDisplay aspect ratio           : 2.35:1\nFrame rate mode                : Constant\nFrame rate                     : 23.976 fps\nColor space                    : YUV\nChroma subsampling             : 4:2:0\nBit depth                      : 8 bits\nScan type                      : Progressive\nBits/(Pixel*Frame)             : 0.047\nStream size                    : 1.19 GiB (87%)\nWriting library                : SUPER(C).2013\nLanguage                       : English\nEncoded date                   : UTC 2014-10-13 00:00:00\nTagged date                    : UTC 2014-10-13 00:00:00\n\nAudio\nID                             : 2\nFormat                         : AAC\nFormat/Info                    : Advanced Audio Codec\nFormat profile                 : LC\nCodec ID                       : 40\nDuration                       : 1h 35mn\nDuration_LastFrame             : -11ms\nBit rate mode                  : Variable\nBit rate                       : 257 Kbps\nMaximum bit rate               : 2 208 Kbps\nChannel(s)                     : 2 channels\nChannel positions              : Front: L R\nSampling rate                  : 48.0 KHz\nCompression mode               : Lossy\nStream size                    : 176 MiB (13%)\nLanguage                       : English\nEncoded date                   : UTC 2014-10-13 00:00:00\nTagged date                    : UTC 2014-10-13 00:00:00\n\nMenu #1\nID                             : 3\nCodec ID                       : text\nDuration                       : 1h 35mn\nLanguage                       : English\nEncoded date                   : UTC 2014-10-13 00:00:00\nTagged date                    : UTC 2014-10-13 00:00:00\nBit rate mode                  : CBR\n\nMenu #2\n00:00:00.000                   : 00:00:00.000\n00:10:38.721                   : 00:10:38.721\n00:21:47.681                   : 00:21:47.681\n00:30:36.126                   : 00:30:36.126\n00:41:10.301                   : 00:41:10.301\n00:50:07.671                   : 00:50:07.671\n01:01:32.689                   : 01:01:32.689\n01:10:54.250                   : 01:10:54.250\n01:20:46.759                   : 01:20:46.759","torrent":{"xt":"urn:btih:f816b99fa2408e0a77fc8632dde307f1d9d90f8e","amp;dn":"Simply.Irresistible.1999.1080p.BluRay.x264-GECKOS.mkv.MP4","amp;tr":["udp%3A%2F%2Ftracker.openbittorrent.com%3A80","udp%3A%2F%2Fopen.demonii.com%3A1337","udp%3A%2F%2Ftracker.coppersurfer.tk%3A6969","udp%3A%2F%2Fexodus.desync.com%3A6969"],"infoHash":"f816b99fa2408e0a77fc8632dde307f1d9d90f8e","infoHashBuffer":{"type":"Buffer","data":[248,22,185,159,162,64,142,10,119,252,134,50,221,227,7,241,217,217,15,142]},"announce":[],"urlList":[]}}